<svg width="1201" height="1031.5" xmlns="http://www.w3.org/2000/svg" xmlns:xlink="http://www.w3.org/1999/xlink" fill="#ffffff"><defs><style>
  text {
    fill: #212529;
    font-family: Helvetica Neue, Helvetica, Arial, sans-serif;
    font-size: 16px;
  }

  marker, text {
    fill-opacity: 1;
  }

  * {
    overflow: visible;
  }
</style></defs><svg x="25" y="15" width="160" height="130" class="User" fill="#ffffff"><g><rect width="100%" height="40" stroke="none" fill="white" class="sc-fqkvVR eDtKfR"></rect><rect y="40" width="100%" height="90" stroke="none" fill="white" class="sc-fqkvVR eDtKfR"></rect><svg height="40"><text x="50%" y="50%" dominant-baseline="middle" text-anchor="middle" font-weight="bold" pointer-events="none" text-decoration="underline">User</text></svg><svg x="0" y="40.5" width="159" height="30" class="id" fill="#ffffff"><g><rect width="100%" height="100%" stroke="none" fill="white" class="sc-fqkvVR eDtKfR"></rect><text x="10" y="50%" dominant-baseline="middle" text-anchor="start" font-weight="normal" pointer-events="none">id</text></g></svg><svg x="0" y="70.5" width="159" height="30" class="name" fill="#ffffff"><g><rect width="100%" height="100%" stroke="none" fill="white" class="sc-fqkvVR eDtKfR"></rect><text x="10" y="50%" dominant-baseline="middle" text-anchor="start" font-weight="normal" pointer-events="none">name</text></g></svg><svg x="0" y="100.5" width="159" height="30" class="password" fill="#ffffff"><g><rect width="100%" height="100%" stroke="none" fill="white" class="sc-fqkvVR eDtKfR"></rect><text x="10" y="50%" dominant-baseline="middle" text-anchor="start" font-weight="normal" pointer-events="none">password</text></g></svg><rect width="100%" height="100%" stroke="black" fill="none" class="sc-fqkvVR jAaomD"></rect><path d="M 0 40 H 160" stroke="black" fill="white" class="sc-gEvEer fkqzOi"></path></g></svg><svg x="215" y="15" width="160" height="160" class="Image" fill="#ffffff"><g><rect width="100%" height="40" stroke="none" fill="white" class="sc-fqkvVR eDtKfR"></rect><rect y="40" width="100%" height="120" stroke="none" fill="white" class="sc-fqkvVR eDtKfR"></rect><svg height="40"><text x="50%" y="50%" dominant-baseline="middle" text-anchor="middle" font-weight="bold" pointer-events="none" text-decoration="underline">Image</text></svg><svg x="0" y="40.5" width="159" height="30" class="id" fill="#ffffff"><g><rect width="100%" height="100%" stroke="none" fill="white" class="sc-fqkvVR eDtKfR"></rect><text x="10" y="50%" dominant-baseline="middle" text-anchor="start" font-weight="normal" pointer-events="none">id</text></g></svg><svg x="0" y="70.5" width="159" height="30" class="url" fill="#ffffff"><g><rect width="100%" height="100%" stroke="none" fill="white" class="sc-fqkvVR eDtKfR"></rect><text x="10" y="50%" dominant-baseline="middle" text-anchor="start" font-weight="normal" pointer-events="none">url</text></g></svg><svg x="0" y="100.5" width="159" height="30" class="uploadedAt" fill="#ffffff"><g><rect width="100%" height="100%" stroke="none" fill="white" class="sc-fqkvVR eDtKfR"></rect><text x="10" y="50%" dominant-baseline="middle" text-anchor="start" font-weight="normal" pointer-events="none">uploadedAt</text></g></svg><svg x="0" y="130.5" width="159" height="30" class="processed" fill="#ffffff"><g><rect width="100%" height="100%" stroke="none" fill="white" class="sc-fqkvVR eDtKfR"></rect><text x="10" y="50%" dominant-baseline="middle" text-anchor="start" font-weight="normal" pointer-events="none">processed</text></g></svg><rect width="100%" height="100%" stroke="black" fill="none" class="sc-fqkvVR jAaomD"></rect><path d="M 0 40 H 160" stroke="black" fill="white" class="sc-gEvEer fkqzOi"></path></g></svg><svg x="395" y="15" width="160" height="130" class="RecipeController" fill="#ffffff"><g><rect width="100%" height="40" stroke="none" fill="white" class="sc-fqkvVR eDtKfR"></rect><rect y="40" width="100%" height="90" stroke="none" fill="white" class="sc-fqkvVR eDtKfR"></rect><svg height="40"><text x="50%" y="50%" dominant-baseline="middle" text-anchor="middle" font-weight="bold" pointer-events="none" text-decoration="underline">RecipeController</text></svg><svg x="0" y="40.5" width="159" height="30" class="alterRecipe()" fill="#ffffff"><g><rect width="100%" height="100%" stroke="none" fill="white" class="sc-fqkvVR eDtKfR"></rect><text x="10" y="50%" dominant-baseline="middle" text-anchor="start" font-weight="normal" pointer-events="none">alterRecipe()</text></g></svg><svg x="0" y="70.5" width="159" height="30" class="getRecipeById()" fill="#ffffff"><g><rect width="100%" height="100%" stroke="none" fill="white" class="sc-fqkvVR eDtKfR"></rect><text x="10" y="50%" dominant-baseline="middle" text-anchor="start" font-weight="normal" pointer-events="none">getRecipeById()</text></g></svg><svg x="0" y="100.5" width="159" height="30" class="saveRecipe()" fill="#ffffff"><g><rect width="100%" height="100%" stroke="none" fill="white" class="sc-fqkvVR eDtKfR"></rect><text x="10" y="50%" dominant-baseline="middle" text-anchor="start" font-weight="normal" pointer-events="none">saveRecipe()</text></g></svg><rect width="100%" height="100%" stroke="black" fill="none" class="sc-fqkvVR jAaomD"></rect><path d="M 0 40 H 160" stroke="black" fill="white" class="sc-gEvEer fkqzOi"></path></g></svg><svg x="575" y="15" width="200" height="100" class="ImageUploadController" fill="#ffffff"><g><rect width="100%" height="40" stroke="none" fill="white" class="sc-fqkvVR eDtKfR"></rect><rect y="40" width="100%" height="60" stroke="none" fill="white" class="sc-fqkvVR eDtKfR"></rect><svg height="40"><text x="50%" y="50%" dominant-baseline="middle" text-anchor="middle" font-weight="bold" pointer-events="none" text-decoration="underline">ImageUploadController</text></svg><svg x="0" y="40.5" width="199" height="30" class="getProcessedRecipes()" fill="#ffffff"><g><rect width="100%" height="100%" stroke="none" fill="white" class="sc-fqkvVR eDtKfR"></rect><text x="10" y="50%" dominant-baseline="middle" text-anchor="start" font-weight="normal" pointer-events="none">getProcessedRecipes()</text></g></svg><svg x="0" y="70.5" width="199" height="30" class="upload()" fill="#ffffff"><g><rect width="100%" height="100%" stroke="none" fill="white" class="sc-fqkvVR eDtKfR"></rect><text x="10" y="50%" dominant-baseline="middle" text-anchor="start" font-weight="normal" pointer-events="none">upload()</text></g></svg><rect width="100%" height="100%" stroke="black" fill="none" class="sc-fqkvVR jAaomD"></rect><path d="M 0 40 H 200" stroke="black" fill="white" class="sc-gEvEer fkqzOi"></path></g></svg><svg x="635" y="225" width="220" height="100" class="RecipeAIService" fill="#ffffff"><g><rect width="100%" height="40" stroke="none" fill="white" class="sc-fqkvVR eDtKfR"></rect><rect y="40" width="100%" height="60" stroke="none" fill="white" class="sc-fqkvVR eDtKfR"></rect><svg height="40"><text x="50%" y="50%" dominant-baseline="middle" text-anchor="middle" font-weight="bold" pointer-events="none" text-decoration="underline">RecipeAIService</text></svg><svg x="0" y="40.5" width="219" height="30" class="generateRecipe(image)" fill="#ffffff"><g><rect width="100%" height="100%" stroke="none" fill="white" class="sc-fqkvVR eDtKfR"></rect><text x="10" y="50%" dominant-baseline="middle" text-anchor="start" font-weight="normal" pointer-events="none">generateRecipe(image)</text></g></svg><svg x="0" y="70.5" width="219" height="30" class="generateRecipe(ingredients)" fill="#ffffff"><g><rect width="100%" height="100%" stroke="none" fill="white" class="sc-fqkvVR eDtKfR"></rect><text x="10" y="50%" dominant-baseline="middle" text-anchor="start" font-weight="normal" pointer-events="none">generateRecipe(ingredients)</text></g></svg><rect width="100%" height="100%" stroke="black" fill="none" class="sc-fqkvVR jAaomD"></rect><path d="M 0 40 H 220" stroke="black" fill="white" class="sc-gEvEer fkqzOi"></path></g></svg><svg x="795" y="15" width="200" height="100" class="UserControlle" fill="#ffffff"><g><rect width="100%" height="40" stroke="none" fill="white" class="sc-fqkvVR eDtKfR"></rect><rect y="40" width="100%" height="60" stroke="none" fill="white" class="sc-fqkvVR eDtKfR"></rect><svg height="40"><text x="50%" y="50%" dominant-baseline="middle" text-anchor="middle" font-weight="bold" pointer-events="none" text-decoration="underline">UserControlle</text></svg><svg x="0" y="40.5" width="199" height="30" class="login(name, password)" fill="#ffffff"><g><rect width="100%" height="100%" stroke="none" fill="white" class="sc-fqkvVR eDtKfR"></rect><text x="10" y="50%" dominant-baseline="middle" text-anchor="start" font-weight="normal" pointer-events="none">login(name, password)</text></g></svg><svg x="0" y="70.5" width="199" height="30" class="register(name, password)" fill="#ffffff"><g><rect width="100%" height="100%" stroke="none" fill="white" class="sc-fqkvVR eDtKfR"></rect><text x="10" y="50%" dominant-baseline="middle" text-anchor="start" font-weight="normal" pointer-events="none">register(name, password)</text></g></svg><rect width="100%" height="100%" stroke="black" fill="none" class="sc-fqkvVR jAaomD"></rect><path d="M 0 40 H 200" stroke="black" fill="white" class="sc-gEvEer fkqzOi"></path></g></svg><svg x="15" y="225" width="160" height="190" class="Recipe" fill="#ffffff"><g><rect width="100%" height="40" stroke="none" fill="white" class="sc-fqkvVR eDtKfR"></rect><rect y="40" width="100%" height="150" stroke="none" fill="white" class="sc-fqkvVR eDtKfR"></rect><svg height="40"><text x="50%" y="50%" dominant-baseline="middle" text-anchor="middle" font-weight="bold" pointer-events="none" text-decoration="underline">Recipe</text></svg><svg x="0" y="40.5" width="159" height="30" class="id" fill="#ffffff"><g><rect width="100%" height="100%" stroke="none" fill="white" class="sc-fqkvVR eDtKfR"></rect><text x="10" y="50%" dominant-baseline="middle" text-anchor="start" font-weight="normal" pointer-events="none">id</text></g></svg><svg x="0" y="70.5" width="159" height="30" class="title" fill="#ffffff"><g><rect width="100%" height="100%" stroke="none" fill="white" class="sc-fqkvVR eDtKfR"></rect><text x="10" y="50%" dominant-baseline="middle" text-anchor="start" font-weight="normal" pointer-events="none">title</text></g></svg><svg x="0" y="100.5" width="159" height="30" class="instructions" fill="#ffffff"><g><rect width="100%" height="100%" stroke="none" fill="white" class="sc-fqkvVR eDtKfR"></rect><text x="10" y="50%" dominant-baseline="middle" text-anchor="start" font-weight="normal" pointer-events="none">instructions</text></g></svg><svg x="0" y="130.5" width="159" height="30" class="ingredients" fill="#ffffff"><g><rect width="100%" height="100%" stroke="none" fill="white" class="sc-fqkvVR eDtKfR"></rect><text x="10" y="50%" dominant-baseline="middle" text-anchor="start" font-weight="normal" pointer-events="none">ingredients</text></g></svg><svg x="0" y="160.5" width="159" height="30" class="updateIngredients()" fill="#ffffff"><g><rect width="100%" height="100%" stroke="none" fill="white" class="sc-fqkvVR eDtKfR"></rect><text x="10" y="50%" dominant-baseline="middle" text-anchor="start" font-weight="normal" pointer-events="none">updateIngredients()</text></g></svg><rect width="100%" height="100%" stroke="black" fill="none" class="sc-fqkvVR jAaomD"></rect><path d="M 0 40 H 160" stroke="black" fill="white" class="sc-gEvEer fkqzOi"></path><path d="M 0 160 H 160" stroke="black" fill="white" class="sc-gEvEer fkqzOi"></path></g></svg><svg x="205" y="225" width="170" height="160" class="Ingredien" fill="#ffffff"><g><rect width="100%" height="40" stroke="none" fill="white" class="sc-fqkvVR eDtKfR"></rect><rect y="40" width="100%" height="120" stroke="none" fill="white" class="sc-fqkvVR eDtKfR"></rect><svg height="40"><text x="50%" y="50%" dominant-baseline="middle" text-anchor="middle" font-weight="bold" pointer-events="none" text-decoration="underline">Ingredien</text></svg><svg x="0" y="40.5" width="169" height="30" class="name" fill="#ffffff"><g><rect width="100%" height="100%" stroke="none" fill="white" class="sc-fqkvVR eDtKfR"></rect><text x="10" y="50%" dominant-baseline="middle" text-anchor="start" font-weight="normal" pointer-events="none">name</text></g></svg><svg x="0" y="70.5" width="169" height="30" class="quantity" fill="#ffffff"><g><rect width="100%" height="100%" stroke="none" fill="white" class="sc-fqkvVR eDtKfR"></rect><text x="10" y="50%" dominant-baseline="middle" text-anchor="start" font-weight="normal" pointer-events="none">quantity</text></g></svg><svg x="0" y="100.5" width="169" height="30" class="calories" fill="#ffffff"><g><rect width="100%" height="100%" stroke="none" fill="white" class="sc-fqkvVR eDtKfR"></rect><text x="10" y="50%" dominant-baseline="middle" text-anchor="start" font-weight="normal" pointer-events="none">calories</text></g></svg><svg x="0" y="130.5" width="169" height="30" class="getNutritionalInfo()" fill="#ffffff"><g><rect width="100%" height="100%" stroke="none" fill="white" class="sc-fqkvVR eDtKfR"></rect><text x="10" y="50%" dominant-baseline="middle" text-anchor="start" font-weight="normal" pointer-events="none">getNutritionalInfo()</text></g></svg><rect width="100%" height="100%" stroke="black" fill="none" class="sc-fqkvVR jAaomD"></rect><path d="M 0 40 H 170" stroke="black" fill="white" class="sc-gEvEer fkqzOi"></path><path d="M 0 130 H 170" stroke="black" fill="white" class="sc-gEvEer fkqzOi"></path></g></svg><svg x="135" y="465" width="160" height="130" class="NutritionalDat" fill="#ffffff"><g><rect width="100%" height="40" stroke="none" fill="white" class="sc-fqkvVR eDtKfR"></rect><rect y="40" width="100%" height="90" stroke="none" fill="white" class="sc-fqkvVR eDtKfR"></rect><svg height="40"><text x="50%" y="50%" dominant-baseline="middle" text-anchor="middle" font-weight="bold" pointer-events="none" text-decoration="underline">NutritionalDat</text></svg><svg x="0" y="40.5" width="159" height="30" class="calories" fill="#ffffff"><g><rect width="100%" height="100%" stroke="none" fill="white" class="sc-fqkvVR eDtKfR"></rect><text x="10" y="50%" dominant-baseline="middle" text-anchor="start" font-weight="normal" pointer-events="none">calories</text></g></svg><svg x="0" y="70.5" width="159" height="30" class="protein" fill="#ffffff"><g><rect width="100%" height="100%" stroke="none" fill="white" class="sc-fqkvVR eDtKfR"></rect><text x="10" y="50%" dominant-baseline="middle" text-anchor="start" font-weight="normal" pointer-events="none">protein</text></g></svg><svg x="0" y="100.5" width="159" height="30" class="fat" fill="#ffffff"><g><rect width="100%" height="100%" stroke="none" fill="white" class="sc-fqkvVR eDtKfR"></rect><text x="10" y="50%" dominant-baseline="middle" text-anchor="start" font-weight="normal" pointer-events="none">fat</text></g></svg><rect width="100%" height="100%" stroke="black" fill="none" class="sc-fqkvVR jAaomD"></rect><path d="M 0 40 H 160" stroke="black" fill="white" class="sc-gEvEer fkqzOi"></path></g></svg><svg x="1005" y="425" width="160" height="70" class="ImageDTO" fill="#ffffff"><g><rect width="100%" height="40" stroke="none" fill="white" class="sc-fqkvVR eDtKfR"></rect><rect y="40" width="100%" height="30" stroke="none" fill="white" class="sc-fqkvVR eDtKfR"></rect><svg height="40"><text x="50%" y="50%" dominant-baseline="middle" text-anchor="middle" font-weight="bold" pointer-events="none" text-decoration="underline">ImageDTO</text></svg><svg x="0" y="40.5" width="159" height="30" class="imag" fill="#ffffff"><g><rect width="100%" height="100%" stroke="none" fill="white" class="sc-fqkvVR eDtKfR"></rect><text x="10" y="50%" dominant-baseline="middle" text-anchor="start" font-weight="normal" pointer-events="none">imag</text></g></svg><rect width="100%" height="100%" stroke="black" fill="none" class="sc-fqkvVR jAaomD"></rect><path d="M 0 40 H 160" stroke="black" fill="white" class="sc-gEvEer fkqzOi"></path></g></svg><svg x="595" y="475" width="160" height="100" class="MessageDT" fill="#ffffff"><g><rect width="100%" height="40" stroke="none" fill="white" class="sc-fqkvVR eDtKfR"></rect><rect y="40" width="100%" height="60" stroke="none" fill="white" class="sc-fqkvVR eDtKfR"></rect><svg height="40"><text x="50%" y="50%" dominant-baseline="middle" text-anchor="middle" font-weight="bold" pointer-events="none" text-decoration="underline">MessageDT</text></svg><svg x="0" y="40.5" width="159" height="30" class="messag" fill="#ffffff"><g><rect width="100%" height="100%" stroke="none" fill="white" class="sc-fqkvVR eDtKfR"></rect><text x="10" y="50%" dominant-baseline="middle" text-anchor="start" font-weight="normal" pointer-events="none">messag</text></g></svg><svg x="0" y="70.5" width="159" height="30" class="sessionID" fill="#ffffff"><g><rect width="100%" height="100%" stroke="none" fill="white" class="sc-fqkvVR eDtKfR"></rect><text x="10" y="50%" dominant-baseline="middle" text-anchor="start" font-weight="normal" pointer-events="none">sessionID</text></g></svg><rect width="100%" height="100%" stroke="black" fill="none" class="sc-fqkvVR jAaomD"></rect><path d="M 0 40 H 160" stroke="black" fill="white" class="sc-gEvEer fkqzOi"></path></g></svg><svg x="595" y="655" width="170" height="70" class="RecipeAIController" fill="#ffffff"><g><rect width="100%" height="40" stroke="none" fill="white" class="sc-fqkvVR eDtKfR"></rect><rect y="40" width="100%" height="30" stroke="none" fill="white" class="sc-fqkvVR eDtKfR"></rect><svg height="40"><text x="50%" y="50%" dominant-baseline="middle" text-anchor="middle" font-weight="bold" pointer-events="none" text-decoration="underline">RecipeAIController</text></svg><svg x="0" y="40.5" width="169" height="30" class="get_recipes" fill="#ffffff"><g><rect width="100%" height="100%" stroke="none" fill="white" class="sc-fqkvVR eDtKfR"></rect><text x="10" y="50%" dominant-baseline="middle" text-anchor="start" font-weight="normal" pointer-events="none">get_recipes</text></g></svg><rect width="100%" height="100%" stroke="black" fill="none" class="sc-fqkvVR jAaomD"></rect><path d="M 0 40 H 170" stroke="black" fill="white" class="sc-gEvEer fkqzOi"></path></g></svg><svg x="595" y="885" width="160" height="130" class="EmbeddingService" fill="#ffffff"><g><rect width="100%" height="40" stroke="none" fill="white" class="sc-fqkvVR eDtKfR"></rect><rect y="40" width="100%" height="90" stroke="none" fill="white" class="sc-fqkvVR eDtKfR"></rect><svg height="40"><text x="50%" y="50%" dominant-baseline="middle" text-anchor="middle" font-weight="bold" pointer-events="none" text-decoration="underline">EmbeddingService</text></svg><svg x="0" y="40.5" width="159" height="30" class="vectordb" fill="#ffffff"><g><rect width="100%" height="100%" stroke="none" fill="white" class="sc-fqkvVR eDtKfR"></rect><text x="10" y="50%" dominant-baseline="middle" text-anchor="start" font-weight="normal" pointer-events="none">vectordb</text></g></svg><svg x="0" y="70.5" width="159" height="30" class="get_matching" fill="#ffffff"><g><rect width="100%" height="100%" stroke="none" fill="white" class="sc-fqkvVR eDtKfR"></rect><text x="10" y="50%" dominant-baseline="middle" text-anchor="start" font-weight="normal" pointer-events="none">get_matching</text></g></svg><svg x="0" y="100.5" width="159" height="30" class="embedd" fill="#ffffff"><g><rect width="100%" height="100%" stroke="none" fill="white" class="sc-fqkvVR eDtKfR"></rect><text x="10" y="50%" dominant-baseline="middle" text-anchor="start" font-weight="normal" pointer-events="none">embedd</text></g></svg><rect width="100%" height="100%" stroke="black" fill="none" class="sc-fqkvVR jAaomD"></rect><path d="M 0 40 H 160" stroke="black" fill="white" class="sc-gEvEer fkqzOi"></path><path d="M 0 70 H 160" stroke="black" fill="white" class="sc-gEvEer fkqzOi"></path></g></svg><svg x="955" y="665" width="220" height="70" class="ImageAnalysisController" fill="#ffffff"><g><rect width="100%" height="40" stroke="none" fill="white" class="sc-fqkvVR eDtKfR"></rect><rect y="40" width="100%" height="30" stroke="none" fill="white" class="sc-fqkvVR eDtKfR"></rect><svg height="40"><text x="50%" y="50%" dominant-baseline="middle" text-anchor="middle" font-weight="bold" pointer-events="none" text-decoration="underline">ImageAnalysisController</text></svg><svg x="0" y="40.5" width="219" height="30" class="get_ingredients_from_image" fill="#ffffff"><g><rect width="100%" height="100%" stroke="none" fill="white" class="sc-fqkvVR eDtKfR"></rect><text x="10" y="50%" dominant-baseline="middle" text-anchor="start" font-weight="normal" pointer-events="none">get_ingredients_from_image</text></g></svg><rect width="100%" height="100%" stroke="black" fill="none" class="sc-fqkvVR jAaomD"></rect><path d="M 0 40 H 220" stroke="black" fill="white" class="sc-gEvEer fkqzOi"></path></g></svg><svg x="605" y="755" width="160" height="100" class="RecipeAIService" fill="#ffffff"><g><rect width="100%" height="40" stroke="none" fill="white" class="sc-fqkvVR eDtKfR"></rect><rect y="40" width="100%" height="60" stroke="none" fill="white" class="sc-fqkvVR eDtKfR"></rect><svg height="40"><text x="50%" y="50%" dominant-baseline="middle" text-anchor="middle" font-weight="bold" pointer-events="none" text-decoration="underline">RecipeAIService</text></svg><svg x="0" y="40.5" width="159" height="30" class="langchain" fill="#ffffff"><g><rect width="100%" height="100%" stroke="none" fill="white" class="sc-fqkvVR eDtKfR"></rect><text x="10" y="50%" dominant-baseline="middle" text-anchor="start" font-weight="normal" pointer-events="none">langchain</text></g></svg><svg x="0" y="70.5" width="159" height="30" class="get_recipes" fill="#ffffff"><g><rect width="100%" height="100%" stroke="none" fill="white" class="sc-fqkvVR eDtKfR"></rect><text x="10" y="50%" dominant-baseline="middle" text-anchor="start" font-weight="normal" pointer-events="none">get_recipes</text></g></svg><rect width="100%" height="100%" stroke="black" fill="none" class="sc-fqkvVR jAaomD"></rect><path d="M 0 40 H 160" stroke="black" fill="white" class="sc-gEvEer fkqzOi"></path><path d="M 0 70 H 160" stroke="black" fill="white" class="sc-gEvEer fkqzOi"></path></g></svg><svg x="965" y="775" width="220" height="100" class="ImageAnaylsisService" fill="#ffffff"><g><rect width="100%" height="40" stroke="none" fill="white" class="sc-fqkvVR eDtKfR"></rect><rect y="40" width="100%" height="60" stroke="none" fill="white" class="sc-fqkvVR eDtKfR"></rect><svg height="40"><text x="50%" y="50%" dominant-baseline="middle" text-anchor="middle" font-weight="bold" pointer-events="none" text-decoration="underline">ImageAnaylsisService</text></svg><svg x="0" y="40.5" width="219" height="30" class="langchain" fill="#ffffff"><g><rect width="100%" height="100%" stroke="none" fill="white" class="sc-fqkvVR eDtKfR"></rect><text x="10" y="50%" dominant-baseline="middle" text-anchor="start" font-weight="normal" pointer-events="none">langchain</text></g></svg><svg x="0" y="70.5" width="219" height="30" class="get_ingredients_from_image" fill="#ffffff"><g><rect width="100%" height="100%" stroke="none" fill="white" class="sc-fqkvVR eDtKfR"></rect><text x="10" y="50%" dominant-baseline="middle" text-anchor="start" font-weight="normal" pointer-events="none">get_ingredients_from_image</text></g></svg><rect width="100%" height="100%" stroke="black" fill="none" class="sc-fqkvVR jAaomD"></rect><path d="M 0 40 H 220" stroke="black" fill="white" class="sc-gEvEer fkqzOi"></path><path d="M 0 70 H 220" stroke="black" fill="white" class="sc-gEvEer fkqzOi"></path></g></svg><svg x="815" y="425" width="160" height="70" class="IngrdientsDTO" fill="#ffffff"><g><rect width="100%" height="40" stroke="none" fill="white" class="sc-fqkvVR eDtKfR"></rect><rect y="40" width="100%" height="30" stroke="none" fill="white" class="sc-fqkvVR eDtKfR"></rect><svg height="40"><text x="50%" y="50%" dominant-baseline="middle" text-anchor="middle" font-weight="bold" pointer-events="none" text-decoration="underline">IngrdientsDTO</text></svg><svg x="0" y="40.5" width="159" height="30" class="ingredient" fill="#ffffff"><g><rect width="100%" height="100%" stroke="none" fill="white" class="sc-fqkvVR eDtKfR"></rect><text x="10" y="50%" dominant-baseline="middle" text-anchor="start" font-weight="normal" pointer-events="none">ingredient</text></g></svg><rect width="100%" height="100%" stroke="black" fill="none" class="sc-fqkvVR jAaomD"></rect><path d="M 0 40 H 160" stroke="black" fill="white" class="sc-gEvEer fkqzOi"></path></g></svg><svg x="425" y="495" width="160" height="70" class="ResponseDT" fill="#ffffff"><g><rect width="100%" height="40" stroke="none" fill="white" class="sc-fqkvVR eDtKfR"></rect><rect y="40" width="100%" height="30" stroke="none" fill="white" class="sc-fqkvVR eDtKfR"></rect><svg height="40"><text x="50%" y="50%" dominant-baseline="middle" text-anchor="middle" font-weight="bold" pointer-events="none" text-decoration="underline">ResponseDT</text></svg><svg x="0" y="40.5" width="159" height="30" class="resp" fill="#ffffff"><g><rect width="100%" height="100%" stroke="none" fill="white" class="sc-fqkvVR eDtKfR"></rect><text x="10" y="50%" dominant-baseline="middle" text-anchor="start" font-weight="normal" pointer-events="none">resp</text></g></svg><rect width="100%" height="100%" stroke="black" fill="none" class="sc-fqkvVR jAaomD"></rect><path d="M 0 40 H 160" stroke="black" fill="white" class="sc-gEvEer fkqzOi"></path></g></svg><svg x="475" y="145" width="270" height="80" class="" fill="#ffffff"><g><polyline points="0 0,0 40,270 40,270 80" stroke-width="1" stroke="black" fill="none" class="sc-aXZVg eMElBf"></polyline></g></svg><svg x="100" y="145" width="1" height="80" class="" fill="#ffffff"><g><polyline points="0 0,0 80" stroke-width="1" stroke="black" fill="none" class="sc-aXZVg eMElBf"></polyline></g></svg><svg x="105" y="145" width="142.5" height="80" class="" fill="#ffffff"><g><polyline points="0 0,0 40,142.5 40,142.5 80" stroke-width="1" stroke="black" fill="none" class="sc-aXZVg eMElBf"></polyline></g></svg><svg x="250" y="385" width="1" height="80" class="" fill="#ffffff"><g><polyline points="0 0,0 80" stroke-width="1" stroke="black" fill="none" class="sc-aXZVg eMElBf"></polyline></g></svg><svg x="695" y="325" width="1" height="150" class="" fill="#ffffff"><g><polyline points="0 0,0 150" stroke-width="1" stroke="black" fill="none" class="sc-aXZVg eMElBf"></polyline></g></svg><svg x="745" y="325" width="340" height="100" class="" fill="#ffffff"><g><polyline points="0 0,0 50,340 50,340 100" stroke-width="1" stroke="black" fill="none" class="sc-aXZVg eMElBf"></polyline></g></svg><svg x="675" y="575" width="1" height="80" class="" fill="#ffffff"><g><polyline points="0 80,0 0" stroke-width="1" stroke="black" fill="none" class="sc-aXZVg eMElBf"></polyline></g></svg><svg x="1085" y="495" width="1" height="170" class="" fill="#ffffff"><g><polyline points="0 170,0 0" stroke-width="1" stroke="black" fill="none" class="sc-aXZVg eMElBf"></polyline></g></svg><svg x="1070" y="735" width="1" height="40" class="" fill="#ffffff"><g><polyline points="0 0,0 40" stroke-width="1" stroke="black" fill="none" class="sc-aXZVg eMElBf"></polyline></g></svg><svg x="685" y="725" width="1" height="30" class="" fill="#ffffff"><g><polyline points="0 0,0 30" stroke-width="1" stroke="black" fill="none" class="sc-aXZVg eMElBf"></polyline></g></svg><svg x="680" y="855" width="1" height="30" class="" fill="#ffffff"><g><polyline points="0 0,0 30" stroke-width="1" stroke="black" fill="none" class="sc-aXZVg eMElBf"></polyline></g></svg><svg x="835" y="325" width="1" height="100" class="" fill="#ffffff"><g><polyline points="0 100,0 0" stroke-width="1" stroke="black" fill="none" class="sc-aXZVg eMElBf"></polyline></g></svg><svg x="895" y="495" width="170" height="170" class="" fill="#ffffff"><g><polyline points="170 170,170 85,0 85,0 0" stroke-width="1" stroke="black" fill="none" class="sc-aXZVg eMElBf"></polyline></g></svg><svg x="505" y="275" width="130" height="220" class="" fill="#ffffff"><g><polyline points="0 220,0 0,130 0" stroke-width="1" stroke="black" fill="none" class="sc-aXZVg eMElBf"></polyline></g></svg><svg x="505" y="565" width="90" height="142.5" class="" fill="#ffffff"><g><polyline points="0 0,0 142.5,90 142.5" stroke-width="1" stroke="black" fill="none" class="sc-aXZVg eMElBf"></polyline></g></svg></svg>